<svg width="345" height="75" viewBox="0 0 345 75" fill="none" xmlns="http://www.w3.org/2000/svg">
<path d="M23.2393 60.2535C30.4907 60.2535 34.1194 57.9349 34.1194 53.2975C34.1194 51.6338 33.3447 50.2374 31.8006 49.1058C30.254 47.977 27.2218 46.6393 22.7042 45.0925C14.7362 42.1217 9.05237 39.4998 6.29479 36.2637C3.32102 33.3513 1.83589 29.4581 1.83589 24.5807C1.83589 18.1597 4.15448 13.1071 8.79191 9.41995C13.5462 5.73581 19.909 3.89062 27.8767 3.89062C33.3447 3.89062 37.9821 4.78251 41.789 6.56602C44.9992 7.87585 47.0508 9.48109 47.9425 11.3817C48.8341 13.2851 48.8035 15.8406 47.8532 19.0511L47.3181 21.0131C47.0782 21.9662 46.6048 22.4401 45.8911 22.4401C45.6512 22.4401 45.2949 22.323 44.821 22.0833C44.5524 21.9998 44.0772 21.7973 43.9294 21.7265C38.2218 18.9927 32.5848 17.8754 27.5524 17.4998C21.8732 17.0759 18.9584 19.5862 18.9584 23.5103C18.9584 25.0568 19.7305 26.4251 21.2773 27.6126C22.8211 28.8023 25.8533 30.2293 30.3739 31.8932C38.4585 34.9869 43.957 37.9298 46.8723 40.7223C49.7847 43.5175 51.2422 47.1873 51.2422 51.87C51.2422 58.0539 49.0524 63.4998 44.9992 67.2092C40.242 71.8467 33.6428 74.1653 25.2011 74.1653C18.4274 74.1653 12.6543 72.4989 7.90002 69.171C2.66637 65.4874 -0.447632 60.9998 0.0523874 55.7946C0.0523874 53.4173 0.765735 52.2273 2.1927 52.2273C2.4294 52.2273 2.57574 52.2628 3.05239 52.4998C3.05239 52.4998 3.49956 52.8238 3.61967 52.9409C9.6838 57.818 16.2219 60.2535 23.2393 60.2535Z" fill="white"/>
<path d="M71.0387 65.783C63.7614 59.2015 60.5151 50.2657 60.5151 38.8502C60.5151 28.9819 63.1905 20.897 68.5416 14.5932C74.843 7.45861 83.5825 3.8916 94.761 3.8916C104.392 3.8916 112.369 6.5 118.483 12.0963C125.498 18.5173 129.007 27.4353 129.007 38.8505C129.007 48.7219 126.331 56.8067 120.98 63.1079C114.796 70.4821 106.115 74.1662 94.9392 74.1662C85.0524 74.5 77.2202 71.3734 71.0387 65.783ZM105.819 54.1893C109.624 50.9791 111.527 45.9848 111.527 39.2068C111.527 33.2625 110.039 28.5663 107.068 25.1162C104.094 21.6688 99.9917 19.9437 94.761 19.9437C89.5303 19.9437 85.4247 21.6382 82.4539 25.0269C79.4801 28.4157 77.995 33.0839 77.995 39.0285C78.0524 45 79.4801 49.6132 82.4539 52.9408C85.4247 56.2711 89.5273 57.9351 94.761 57.9351C99.2786 57.9351 102.965 56.6864 105.819 54.1893Z" fill="#E9E4E4"/>
<path d="M179.481 4.06934C187.446 4.06934 193.552 5.99976 198.387 10.6688C204.052 15.4998 206.592 23.511 206.592 33.856V70.4202C206.592 71.73 205.937 72.3819 204.63 72.3819H191.431C190.121 72.3819 189.47 71.7297 189.47 70.4202V35.9963C189.47 25.1773 184.654 19.7652 175.022 19.7652C165.391 19.7652 160.575 25.2945 160.575 36.3531V70.4202C160.575 71.73 159.862 72.3819 158.435 72.3819H145.414C144.104 72.3819 143.453 71.7297 143.453 70.4202V7.45835C143.453 6.03165 144.105 5.31803 145.414 5.31803H146.306C153.552 4.99976 157.78 8.2331 159.326 14.0578C164.052 6.99976 171.036 4.06934 179.481 4.06934Z" fill="white"/>
<path d="M251.003 73.9874C241.965 73.9874 234.71 70.9552 229.242 64.891C223.295 58.3527 220.324 49.6131 220.324 38.6716C220.324 29.1598 222.552 20.9999 227.637 14.9494C233.462 7.34114 241.371 3.53418 251.359 3.53418C260.751 3.53418 268.064 6.74465 273.298 13.1659C274.961 7.93492 279.184 5.31796 285.961 5.31796H286.853C288.16 5.31796 288.815 6.0313 288.815 7.45827V70.4203C288.815 71.7302 288.16 72.3821 286.853 72.3821H273.655C272.465 72.3821 271.871 71.7299 271.871 70.4203V63.9991C266.877 70.6597 259.921 73.9874 251.003 73.9874ZM267.323 52.8515C270.355 49.4627 271.871 44.7363 271.871 38.6716C271.871 32.7186 270.413 28.1202 267.501 24.8486C264.586 21.5794 260.395 19.9436 254.927 19.9436C249.692 19.9436 245.532 21.6381 242.441 25.0269C239.348 28.4156 237.804 32.964 237.804 38.6716C237.552 44.4999 239.348 49.1671 242.441 52.6732C245.532 56.1821 249.634 57.935 254.748 57.935C260.099 57.935 264.29 56.2402 267.323 52.8515Z" fill="white"/>
<path d="M328.768 7.45861C331.502 6.03191 335.426 5.3183 340.54 5.3183H342.501C343.689 5.3183 344.285 6.03164 344.285 7.45861V19.5874C344.285 21.0144 343.689 21.7277 342.501 21.7277H337.864C332.037 21.7277 327.993 23.1547 325.735 26.0084C323.355 28.7454 322.168 33.7394 322.168 40.9908V70.4207C322.168 71.7305 321.572 72.3825 320.385 72.3825H307.007C305.937 72.3825 305.402 71.7303 305.402 70.4207V7.45861C305.402 6.03191 305.937 5.3183 307.007 5.3183H307.899C315.552 4.99995 320.552 8.5 321.633 15.1282C323.654 11.4441 326.031 8.88558 328.768 7.45861Z" fill="white"/>
<path d="M122.95 21.8218C122.99 22.3261 122.857 22.7838 122.618 23.1952C121.762 24.6482 120.183 25.272 118.591 25.5571C115.632 26.0851 112.588 25.5936 109.558 26.0554C106.785 26.4779 103.911 27.2451 101.281 27.8595C95.4288 29.2261 89.524 31.2165 84.2428 34.2487C82.113 35.4696 79.9833 36.8097 78.0723 38.3822C76.261 39.8817 74.6422 41.5802 73.4081 43.6104C69.0225 50.8091 70.4292 59.2486 72.5722 67.0381C72.068 66.6399 71.577 66.222 71.0993 65.784C64.0524 59.4999 61.0342 51.3799 60.6228 40.9632C60.5963 40.2731 60.583 39.5633 60.583 38.8534C60.583 38.2164 60.5963 37.5796 60.6163 36.9558C60.6363 36.4515 60.6628 35.9538 60.6961 35.4628C60.7028 35.2902 60.7161 35.1179 60.7358 34.9453C60.7426 34.7462 60.7624 34.5539 60.7824 34.3548C60.8289 33.7775 60.8952 33.2002 60.9682 32.6297C61.0015 32.3443 61.0413 32.0657 61.0875 31.7806C61.1673 31.2165 61.2601 30.666 61.3664 30.1218C61.4194 29.8496 61.4725 29.5778 61.5322 29.3056C62.0365 26.917 62.7531 24.6679 63.6688 22.5514C63.7286 22.4053 63.7948 22.2595 63.8611 22.1134C63.9206 21.9809 63.9804 21.8548 64.0402 21.722C64.1465 21.4899 64.2593 21.251 64.3786 21.0187C65.1547 19.4529 66.0507 17.9667 67.0656 16.56C67.2182 16.3545 67.3708 16.1486 67.5233 15.943C67.6762 15.7439 67.8352 15.5448 67.9946 15.3392C68.1539 15.1401 68.313 14.9478 68.4788 14.7487C68.5253 14.6957 68.5651 14.6426 68.6113 14.5893C68.8037 14.3637 69.0028 14.1449 69.2084 13.9325C69.4075 13.7137 69.6131 13.5013 69.8254 13.2955C70.0178 13.0899 70.2169 12.8973 70.4224 12.6984C70.449 12.6784 70.4822 12.6454 70.5022 12.6254C79.3332 3.79445 93.8902 -1.46031 105.667 4.55757C106.476 4.96902 107.232 5.42673 107.956 5.94423C111.944 8.71105 114.637 12.7847 116.548 17.3164C117.212 18.8757 119.859 19.2008 121.425 19.7846C122.148 20.05 122.692 20.594 122.884 21.3703C122.924 21.5229 122.95 21.6758 122.95 21.8218Z" fill="white"/>
<path opacity="0.23" d="M122.95 21.8217C122.99 22.326 122.857 22.7837 122.618 23.1951C121.762 24.6481 120.183 25.2719 118.591 25.557C117.384 25.7759 116.163 25.8822 114.949 26.0215C113.131 25.2586 111.724 23.2747 111.253 21.4766C113.044 22.5646 115.115 23.1751 117.204 23.2346C119.208 23.2877 121.225 22.8567 122.95 21.8217Z" fill="#CBC4C4"/>
<path d="M66.8127 1.1677L65.9501 1.47284C64.683 1.9173 64.2913 2.83299 64.7758 4.21316L68.478 14.7492C68.5246 14.6962 68.5643 14.6431 68.6106 14.5898C68.8029 14.3642 69.002 14.1454 69.2076 13.933C69.4067 13.7142 69.6123 13.5018 69.8247 13.296C70.017 13.0904 70.2161 12.8978 70.4217 12.6989C70.4482 12.6789 70.4815 12.6459 70.5015 12.6259C73.8919 9.35484 77.8462 6.72083 82.2251 4.96276C78.7484 0.0464199 73.6132 -1.21418 66.8127 1.1677Z" fill="white"/>
<path d="M98.6796 41.3275C98.5168 41.9635 97.9279 42.415 97.0698 42.7483C94.7536 43.6475 92.3247 44.2096 89.9304 43.2787C88.6698 42.7886 87.5701 41.6651 86.6057 40.74C85.551 39.728 84.5601 38.6521 83.5167 37.6288C82.713 36.8405 81.9007 36.0763 81.0959 35.2918C80.7201 34.9255 80.1726 34.5649 80.0322 34.0328C79.9181 33.5997 80.0617 33.0765 80.042 32.6313C80.0171 32.0702 80.0888 31.5038 80.2156 30.9476C80.4347 29.987 80.9444 29.3627 81.9918 29.4468C84.7516 29.6683 87.7002 30.491 90.2358 31.5979C92.6953 32.6716 94.9251 34.3104 96.4747 36.5218C96.5848 36.679 96.6913 36.8386 96.7941 37.0006C97.3779 37.9199 97.9311 38.8742 98.4199 39.8473C98.7124 40.4294 98.7849 40.9169 98.6796 41.3275Z" fill="white"/>
<path d="M82.5172 4.84326L82.3979 5.20142C82.3449 5.12189 82.2851 5.04209 82.2253 4.96256C82.3181 4.91603 82.4177 4.88303 82.5172 4.84326Z" fill="white"/>
<path d="M111.257 21.4819C115.022 23.6382 119.408 23.4735 123.285 21.7219C122.823 21.9488 122.345 22.2177 121.865 22.4103C118.473 23.8276 114.306 23.6298 111.257 21.4819Z" fill="#E9E4E4"/>
<path d="M110.747 22.1144C111.157 21.8177 111.377 21.344 111.432 20.8606C111.53 21.3635 111.15 21.8769 110.747 22.1144Z" fill="#E9E4E4"/>
<path d="M101.684 14.8865C101.985 16.1636 103.235 16.8483 104.5 16.5715C105.765 16.2948 106.57 15.1554 106.268 13.8721C105.966 12.5887 104.721 11.8954 103.465 12.1889C102.21 12.4824 101.383 13.6094 101.685 14.8865H101.684Z" fill="#272E38"/>
<path d="M101.795 16.3651C102.101 17.6416 103.359 18.3307 104.619 18.0626C105.879 17.7945 106.688 16.6502 106.383 15.3712C106.077 14.0922 104.833 13.417 103.574 13.6973C102.316 13.9775 101.49 15.0885 101.795 16.3651Z" fill="white"/>
</svg>
